<?xml version="1.0" encoding="utf-8"?>
<!-- Generator: Adobe Illustrator 25.2.0, SVG Export Plug-In . SVG Version: 6.00 Build 0)  -->
<svg width="1196" height="531" version="1.1" id="Warstwa_1" xmlns="http://www.w3.org/2000/svg" xmlns:xlink="http://www.w3.org/1999/xlink" x="0px" y="0px"
	 viewBox="0 0 568 531" style="enable-background:new 0 0 568 531;" xml:space="preserve">
<style type="text/css">
	.st0{clip-path:url(#SVGID_2_);}
	.st1{fill:#DCDCDC;}
</style>
<g>
	<defs>
		
			<rect id="SVGID_1_" x="330.4" y="0.4" transform="matrix(1 -3.613487e-03 3.613487e-03 1 -0.3845 1.6214)" width="236.2" height="213.6"/>
	</defs>
	<clipPath id="SVGID_2_">
		<use xlink:href="#SVGID_1_"  style="overflow:visible;"/>
	</clipPath>
	<g class="st0">
		<path class="st1" d="M446.5,201.4c0.1-0.3,0.1-0.6,0.1-0.8C445.6,200.8,446,201.1,446.5,201.4z"/>
		<path class="st1" d="M506.8,213.8c0-0.6-0.8-0.4-1.2-0.4C506,213.6,506.4,213.7,506.8,213.8z"/>
		<path class="st1" d="M515.6,212.6c1.4-0.3,3.8-0.2,4.5-1.7c-0.8-0.5-1.9-1.3-3-1c-0.5,0.1-0.9,0.4-1.4,0.4c-0.6,0-1-0.5-1.6-0.4
			c-0.6,0.1-1.2,1.3-0.7,1.8C514,212.1,514.9,212.5,515.6,212.6z"/>
		<path class="st1" d="M510.3,181.4c-2-0.1-0.9-4.2-2.9-4.4c0.9-1.4-2.4-5.8-3-7.3l-2.3-5.3c-5.9,1.2-11.8,2.5-17.6,3.3
			c-4.8,1.5-7.2,3.9-8.3,6.5c-1,1.5-1.5,5.3-3.9,5.2c-1.6-0.1-1.5-2.6-3.1-2.4c-2,0.2-3.6,0.2-5.6-0.1c-1.1-0.2-2.3-1-3.4-1
			c-1.2,0-2.5,0.1-3.7,0.2c-1.5,0.1-2.8,0.8-4.4,0.8c-0.9,0-1.2-1-2.1-1.1c-0.8-0.1-1.5,0.5-1.8,1.2c-0.4,0.8-0.5,1.7-0.4,2.6
			c0.1,0.6,0.9,1.1,0.5,1.7c-0.4,0.5-0.7,1.1-1.1,1.7c-0.2,0.3-0.5,0.6-0.8,0.7c-0.8,0.4-0.4,0.7-0.2,1.6c0.3,1.4-0.3,2-0.5,3.3
			c-0.2,1.2,0.8,2.2,0.6,3.3c-0.2-0.2-1.4-0.2-1.2,0.2c0-0.1,1.2,0.6,1.2,0.6c0.7,0.7,0.9,1.4,1.1,2.4c0.4,1.8,0.5,3.8,1.1,5.6
			c0.2,0.7,0.8,1.3,1.1,2c0.3,0.8,0,1.8,0,2.6c0,1.7,2.1,3.2,1.5,4.9c0.8,0.1,1.3-0.4,2-0.1c0.8,0.3,1.4,0.6,2.3,0.4
			c1.9-0.4,2.7-1.7,4.6-0.7c-0.1-0.5,0.5-1.1,0.7-0.3c0.3-0.4,0.5-0.8,0.8-1.2c0.4-0.6,1.1-0.6,1.6-1c1.2-0.9,1.4-1.9,3-2.2
			c1.6-0.4,3.2-0.4,4.8-0.3c0.9,0.1,2.5-1,3.5-1.3c1.4-0.4,2.1-1.6,3.3-2.3c0.4-0.2,0.9-0.7,1.3-0.8c0.5,0,0.9,0.1,1.3,0.3
			c0.5,0,0.9,0,1.4-0.2c3-0.5,3.7-3.6,6.3-4.9c1.2-0.6,2.4-0.8,3.7-1c1.6-0.3,3-1.4,4.6-1.8c1.1-0.3,2.3-0.5,3.4-0.9
			c1.1-0.4,1.5-1.3,2.4-1.7c0.8-0.4,2.4-0.4,2.6-1.4c0.3-1.2-0.6-2.3-0.1-3.5C505.4,182.7,508.5,182.8,510.3,181.4z"/>
		<path class="st1" d="M392.5,91.3c-0.1-2,0.7-3.9,0.7-5.9c0-2.3,1-4,1.3-6.1c0.1-0.9-0.2-1.8-0.1-2.7c0.1-0.9,0.3-1.7,0.4-2.6
			c0.1-1.8-0.2-3.9-0.3-5.7c-0.1-1.5,1.8-1.1,2.7-0.5c1.4,1,2.7,2.5,4.6,2.1c1.9-0.4,3.7-2.2,5.3-3.3c2-1.4,4.1-2.9,6.2-4.1
			c0.7,2.1,1.5,4.1,2.3,6.2c-0.7,0.1-0.3,1.1,0.2,1.2c0.8,0.2,1.7,0.1,0.5,1.3c-3.8,2.3-7.6,3.6-12.2,4.7l6.8,7.1
			c-0.6,0.3-2.2,0.3-2.7,0.8c-0.5,0.6,0.1,1.9-0.5,2.5c-0.9,1.1-3.2,0.2-4.3,1.3c-1.3,1.3-1.8,3.7-3.7,4.4
			C398.2,93,394.3,91.7,392.5,91.3z"/>
		<path class="st1" d="M510.4,128.2c0.4,0,0.7-0.1,0.9-0.5c-0.5-0.4-1.2-0.3-1.5,0.3C510,128.1,510.2,128.2,510.4,128.2z"/>
		<path class="st1" d="M496.7,127.2c0.4-0.3,0.6-0.1,0.5,0.5c0.2-0.2,0.4-0.4,0.6-0.5c0.4,0.6,0,1.4,0.5,1.9c0.4,0.5,1.4,0.4,2,0.4
			c0.7,0,1.4-0.2,1.9-0.7c0.3-0.2,0.6-0.9,0.9-1c0.4-0.1,1.3,0.5,1.8,0.5c0.8,0,1.5,0.1,2.3,0.1c2.1-0.1,3.5,0.9,5.6-0.4
			c-0.2-0.3-0.4-0.6-0.6-0.8c0.6-0.2,0.6,0.5,1.1,0.5c0.7-0.1,1.4-1,1.7-1.6c0.8-1.6,0.9-2.5,2.4-3.7c1.4-1.2,2-3.3,3.3-4.4
			c1.5-1.2,2.3-1.5,2.8-3.5c1.1,0.1,0.6,1.6,0.6,2.2c0,1.2,1.4,0.6,1.5,2c0.2,1.4,1.1,3.2,0,4.2c-2.3,2.3-1.6,0.7-1.9-0.3
			c-0.4-0.9-1.1,0.8-1,1.4c0.1,0.4-0.1,0.5,0,0.9c0.1,0.5,0.4,1.3,0.4,1.9c0,1.7,1.7,0.9,1,2c-0.5,0.9-2.3,0.1-2.9,0.9
			c1.6,0.9-0.7,4.9-1,7.4c0.1,1.6-0.7,2-2.1,1.7c-1.8-0.4-3.6-0.6-5.3-0.8c-1.9-0.3-3.7-0.5-5.6-0.8c-1.4-0.2-3,0.1-3.9-1.1
			c-0.9-1.2-1.8-2.5-2.8-3.7c-0.7-0.8-1.4-1.7-2.1-2.5C497.3,129,497.2,128.1,496.7,127.2z"/>
		<path class="st1" d="M333.7,10.4c0.6-0.3,1.5-1.1,1.6-1.8c0.3-1-0.5-1.8,0.9-2.5c0.8-0.4,0.5-0.4,0.3-1.2c-0.1-0.5-0.3-1-0.8-1.1
			c-1.9-0.6,0.4-0.9,0.3-1.7c0-0.2,2-0.8,2.4-0.9c1.1-0.4,1.7-0.7,2.5,0.2c0.7,0.8,1.2,0.3,2.1,0.2c0.4,0,1,0,1.3,0.3
			c0.6,0.5-0.3,0.7,0.1,1.2c1.6,2,3.5,2.9,6,3.7c1,0.3,0.2,1.7-0.4,1.9c-1.2,0.4-2.8-0.7-4-0.7c-0.6,0-0.9,0.4-1.4,0.6
			c-0.6,0.3-1.2-0.2-1.9,0c-0.8,0.2-1.2,1.1-1.7,1.8c-0.9,1-2.1,1.3-3.2,2.1c-0.9,0.7-1.8,2.5-2.7,2.9c-0.3-1.2,0.2-2.4,1.3-2.8
			c0.2-0.1,2.4-0.7,1.7-1.3C336.9,10.2,334.3,12.8,333.7,10.4z"/>
		<path class="st1" d="M334.5,19.4c0.1-0.6,0.1-3.7,0.6-3.8c1.1-0.4,1.5-2.1,2.6-2.7c0.6-0.3,1.4,0.2,2-0.2c0.7-0.5,1-0.1,1.7,0.3
			c0.9,0.5,3.8,0.3,2-0.8c0.6-0.2,1.2-0.2,1.8-0.1c-0.3,0.1-0.4,0.3-0.4,0.6c0.4,0.5,2.1,0.2,2.6,0.1c1.4-0.1,3.4,0.7,4.5-0.3
			c-0.6-0.5-1.3-0.1-1.8-0.5c0.7-1.9,4.2-1.2,5.7-1.6c-1.3-0.7-3.2-0.1-4.4-1.2c-1.3-1.3,0-2.4,1.3-2.2c1.5,0.1,3,0.8,4.5,0.5
			c2-0.4,3.6,0.6,5.7,0.4c0.9-0.1,1.1-0.6,1.4-1.3c0.4-0.8,1.8-1.2,2.6-1.6c2.1-1.2,3.8-2.3,6.2-3c2.5-0.7,4.4-0.3,6.9-0.3
			c1,0,2.1,0.4,3.1,0.1c0.5-0.1,0.6-0.7,1.1-0.8c0.5-0.1,0.9,0.1,1.3,0.2c-0.8,0.9,0.5,2.2,1.4,2.4c0.6,0.2,1.3,0.3,1.9,0.3
			c0.7-0.1,1.3-0.9,1.3,0.1c0.2-1.5,1.2,0.3,1.3,0.8c0.2,0.6,1.8,2.5,2.4,1.9c0.8-0.9,1.7-0.7,2.6,0c1.1,0.9,2.4,1,3.6,1.6
			c0.7,0.3,0.8-1.1,1.7,0c0.7,0.8,2.2,0.8,3.2,0.9c1.4,0.1,2.9-0.8,4.3-1c1.2-0.1,1.9-0.3,3.1,0.1c1.6,0.6,2.8,1,4.5,0.2
			c2-1,3.9-2,5.6-3.4c0.7-0.6,1.3,0.4,2,0.4c0.4,0,0.4-0.6,0.9-0.5c0.3,0.1,0.6,0.1,1,0.2c0.5,0.1,1.8,0.6,2.1,0
			c0.3-0.8,2-1.4,1.5-0.3c0.5-0.1,1,0.2,1.4,0.6c0.3,0.2,0.6,0.5,0.9,0.7c0.5,0.1,0.6,0.3,0.3,0.7c0.2,0.7,1.1,0,1.5,0.6
			c0.2,0.4,0.4,1.4,0.8,1.7c1.1,0.9,2.1,1.8,1.4,2.7c-0.6,0.9,1.1,2.3,0.2,2.9c1.5,0.7,2.2,0.6,3.7,0.6c1.3,0,3.1,1.8,3.6,2.9
			c-0.7-0.6-1.8-1.4-2.1,0c-0.1,0.4,0,0.9-0.1,1.3c-0.2,0.6-1.7,0.3-2.1,0.5c0.3,0.4,1,1.5,1.2,2c0.2,0.9,0.6,1.3,0.9,2.1
			c0.5,1.2,0,2.9,1.5,3.4c-0.5,0.5-0.8,1.4-1,2.1c-0.3,1.3,1.1,1.1,1.7,1.8c0.7,0.6,0.6,1.5,0.8,2.3c0.1,0.4,0.9,0.6,1.1,0.9
			c0.3,0.3,0,1,0.2,1.3c-1.4-1-2,1.5-2.7,1.2c-1-0.3-0.2-1.7-0.9-2.2c-0.4-0.3-1-0.2-1.3,0.1c-0.6,0.6-1.5,0.4-2.2,0.2
			c-1.2-0.4-2.1-0.8-3.3-0.7c-0.9,0-1.4-0.2-1.9,0.6c-0.6,0.9-1.7,1.8-2.1,0.4c-0.3-1.2-1.9,0.3-2.6,0.5c-1.7,0.6-3.2,0.6-5,0.3
			c-3.2-0.4-5.9,2.8-9.1,3c-1.3,0.1-3.6,0.4-4.7-0.4c-1.2-0.9-1.9-1.4-3.4-0.7c-1.5,0.8-4.9,2.5-6.3,0.9c-0.7-0.8-2.1-1.1-2.3,0.2
			c-0.2,1.3,0.3,2.2,0.8,3.3c-0.6,0-1.2,0.2-1.8,0.1c-0.1,0.5,0.2,1,0.1,1.5c-0.2,0.6-1,0.7-1.2,1.4c-0.4-0.3-0.9-0.6-1.4-0.8
			c0.5-0.7-0.2-1.5-0.6-2c-0.8-0.9,0.1-1.5,0.8-2.2c0.8-0.7,1.3-1.2,0.5-2.2c-0.3-0.4-1-0.9-1.4-0.4c-0.6,0.8-1.2,0.7-2,1.2
			c1.3-0.1,0,1.1-1,1c-1.2-0.2-2.2-0.9-3.2-1.4c-2.5-1.2-3.8,2.4-4.9,3.9c-0.2-0.2-0.4-0.4-0.5-0.6c-0.4,0.5-0.7,1.3-1.5,1
			c-0.6-0.2-2.4,0.2-3,0.5c-1.1,0.5-2.3,0.5-3.4,0c-1.6-0.7-2.2-2.5-3.7-3.2c-1.7-0.8-3.4-1.8-5.3-2.1c-1-0.2-3-0.6-3,1
			c0,0.9,0.2,2.5-0.5,3.2c-0.4,0.4-0.8-0.3-1.2-0.4c-0.9-0.1-1.7,0.9-2.6,1.1c-1,0.2-2.5-0.5-3.3-1c-0.6-0.4-0.6-1.7-1.5-1.7
			c0.7-0.9-0.9-1.9-1.1-0.7c-0.6-0.6-2.2-0.8-2.4-1.7c-0.1,0.7-1.8,1.8-2.4,2.3c0.2-0.4,0.1-0.7-0.4-0.8c0.5-0.1,0.8-0.5,0.8-1
			c-0.6,0.5-3.4,1.1-4.2,0.9c0.6-0.8,1.8-0.8,2.7-0.8c0.9,0,0.8,0.3,1.2-0.4c0.3-0.5,0.8-0.7,1.2-1.1c-1.1-0.5-4.9-0.5-5.8,0.4
			c-1.4-1.6,1.2-0.8,1.4-1.2c0.2-0.3,0.1-0.8-0.1-1.1c-0.5-0.8-1,0.3-0.7-0.9c-1.3,1.7-1.2-1.8-2.4-1.7c0.8-0.5,1.8-0.9,1.1-2.1
			c-0.5-0.8-2-0.4-2.4-1c-0.4-0.6-0.8-1.5-1.3-0.4c-0.2,0.5-2-0.8-2-1.3c1.8,0.4,0.2-1.5,0.3-2.2c0.1-0.6,1-0.2,1.2,0.1
			c0.4,0.6,0.3,1.6,0.8,2.1c-0.1-1.3,1.9,0.3,2.5-1c-1.2-0.1-1.7-0.7-2.4-1.6c0.6-0.3,0.9-1.1,1.7-1.3c-0.3-1-1.3,0-1.2-1.1
			c0.1-1.1-0.5-1.2-1.3-1.9c0.5-0.6,1.1-1.1,1.6-1.8C337.8,18.2,336.3,20,334.5,19.4z"/>
		<path class="st1" d="M413.4,62.6c3.6-1.8,6.7-3.5,9.9-5.7c1-0.7,2.1-1.6,2.7-2.5c1.1-1.7,0.2-4,0.4-4.6c0-2.7,0.7-3,0.6-4.3
			c-0.2-1.4-2.2-3.9-0.7-5.2c0.9-0.7,2-0.7,2.9-1.5c0.8-0.7,2.9-2.4,2.2-3.1c-0.3-0.3,0.3,0,0.7-0.1c0.7-0.2,0.9-0.9,1.2-1.4
			c0.3-0.6,3.4-0.1,4.1,0.2c0.5,0.2,1.1,0.4,1.7,0.5c0.9,0.2,1.2-0.4,2-0.6c2.1-0.4,0.7,2.3,1.8,2.2c0.9-0.1,1.2-1.4,2.1-1.3
			c1.2,0,1.2,2.1,1.7,2.8c0.2,0.3,0.6,0.3,0.8,0.7c0.3,0.5-0.1,1.2,0.4,1.7c0.9,0.9,2.9,1.7,2.1,3.3c1.3-0.3,1.9,0.9,2.5,1.1
			c1.1,0.4,1.2-0.5,3.6,0.2c-0.2,0.9-1.3,0.7-1.7,1.4c-0.7,1.2,1.2,2.1,1.3,3.2c0.1,1.5-1.6-0.1-1.6,1.3c0,0.7-0.7,0.6-0.9,1.2
			c-0.2,0.7,0.1,1.2,0.3,1.9c-0.4,0-0.9-0.1-1.2-0.4c-0.1,0.6-0.5,1.1,0,1.5c0.5,0.5,0.9,0.8,0.6,1.7c-0.3,0.8-1,1-0.3,1.7
			c0.6,0.6,1.2,1.2,1.9,1.7c0.7,0.5,4.3,3.6,2.3,4.2c0.8,0.2,0.6,1.1,1.3,1c1-0.2,1.5,0.4,2.3,0.8c1.4,0.8,2.3,2.6,4.3,2.7
			c0.9,0.1,2.6,3.1,3.5,3.8c1.2,1.1,0.5,2.2,0.2,3.7c-0.1,0.7-0.1,2.8,1,2.8c0.4,0,1-0.1,1.3,0.3c0.4,0.5,0.4,1.4,0.3,2
			c-0.2,1.3,0.5,1.7,1.9,2.7c0.7,0.5,0.6,2.2,1.6,2.4c-0.5,0-3.7-0.4-3.8-1c0.4,1-1.4,0.2-2.1,0.2c-1,0-2.4,0.2-2.8,1.2
			c-1,2.2-0.8,6.4-4.2,6.1l-8.7-1c-2.9-0.4-3-1.9-5.7-3.6c-7.4-5.4-14.4-11.8-22.7-15.4c-3-1.3-5.6-1.2-8.3-1.7
			c1.7-1.8-0.3-1-0.9-1.8c-0.1-0.2-0.2-0.6-0.1-0.8c0.4-0.5,0-1-0.3-1.7C414.4,65.7,413.9,64.1,413.4,62.6z"/>
		<path class="st1" d="M505.6,109.3c0.2-0.1,0.4-0.1,0.6-0.1c-0.4-0.2-0.8-0.3-1.2-0.1C505.2,109.1,505.4,109.2,505.6,109.3z"/>
		<path class="st1" d="M510.4,111.4c0.1-0.5-0.1-0.5-0.6-0.1C510,111.3,510.2,111.4,510.4,111.4z"/>
		<path class="st1" d="M521.1,108.2c-1,0.8-1.6,2.2-3.2,2c-0.1,1.5,2.1,0,2.6-0.3c0.5-0.2,1.1-0.1,1.7-0.3c0.7-0.4,0.9-1.5,1.8-1.6
			C522.9,107.1,522.1,108.7,521.1,108.2z"/>
		<path class="st1" d="M439.3,19.7c1.6-0.6,2.2,0.6,2.2-2c0-1.1,1-0.7,1.7-0.2c0.7,0.5,1.1,1.3,1.7,1.9c0.6,0.6,1.3,1,1.9,1.6
			c1.3,1.1,1.8,1.8,3.6,2.1c1.1,0.2,2.7,0.3,3.8,0c0.6-0.2,2.6-2,2.8-2.5c0.2-0.7,1.1-0.8,1.6-1.2c0.6-0.5,1.1-1.1,1.7-1.5
			c1.6-1.1,3.1,0.6,4.1,1.8c-2.2,0.8,0.8,2.7-0.4,2.9c-2.3,0.5,0.1,1.8,1.1,2.4c0.7,0.4,1.3,1.1,2,1.4c0.3,0.1,1.2,0,1.3,0.1
			c0.9,1.8,0.8,4.9,2.8,5.9c1.7,0.9,3.8,0.5,5.6,1.2c1.1,0.5,1.5,1.8,2.5,2.5c1,0.8,2.5,1.4,3.7,1.9c2.2,1,5.2,1.7,7.6,0.9
			c2.9-0.9,6.4-2.3,9.5-1.8c-0.6,0.2-1.3,0.2-1.9,0.2c0.4,0.3,2.1,1,2.4,0.1c0.2-0.8-1-2.9-1.2-3.7c1.4,0.3,2.5,0.2,3.8-0.3
			c1.5-0.6,0.5-1.2,1.2-2.3c0.7-1.1,2.3-2.1,3.4-2.5c1.7-0.6,3.3,0.3,5,0c-0.6-0.9,0.7-1,1.4-1.1c0.9-0.1,2,0.3,2.9,0.2
			c1.3-0.1,1.3,0,1.9,1.2c0.6,1.1,2.3,1.1,3.4,1.3c1.2,0.2,2.1,1.5,3.4,1.6c1.4,0.1,2.6-0.1,4,0.4c1.4,0.5,1.8,1.1,2.6,2.2
			c0.8,1.2,2.5,1,3.6,1.8c1,0.7,1.3,1.9,2.3,2.5c1.1,0.7,4-0.6,4.8,0.3c0.7,0.8,0.9,3,1,3.8c0.2,1-0.6,0.6,0.2,1.3
			c0.5,0.4,0.9,2.1,1,2.7c0.1,1-0.7,1.6-0.6,2.6c0.2,1.4,0.7,4.3-1.3,4.6c0.2,0.3,0.9,0.8,0.8,1.2c-0.1,0.6-1.4,0.7-1.6,1.4
			c-0.4,1.3,0.3,4.3,1.9,4.4c2,0.1,0.2,1.7-0.1,2.7c-0.4,1.5,1.7,4.8,2.1,6.4c0.5,1.9,0.3,3.7,1.6,5.2c1,1.1,3.3,0.5,4.6,1.2
			c1.4,0.7,1.3,2.9,1,4.1c-0.4,1.2-1.5,2.3-2.1,3.4c-0.5,0.9-1.8,3-2.3,3.4c0.7,0.7,1.2,1.2,1.5,1.4c3,2.6,4,6.5,6.4,7.8
			c0.7,0.4,1.5,0.6,2.2,1c0.7,0.3,1.6,1,2.4,1c1.1,0.1,1.5,3.9,1.6,4.9c0.2,3.5,0.8,2.5,2.8,2.5c0.9,0,0.4,2.5,0.4,3.5
			c-0.1,2-6.5,0.2-5.5,2.9c-0.6-0.1-1.7,0.3-2,0.7c-1.1,1.5-0.9,4.1-1,6.1c0,0.6,0.2,1.8-0.8,1.4c0.5,1.6-2.9,0.2-3.5,0
			c-0.6-0.2-2-0.1-2.1-0.9c-0.2-1.2-1.6-0.5-1,0.1c-0.3,0.1-3.3,0-3.5-0.2c-1-0.8-2.8-0.6-3.9-0.3c-0.9,0.3-1.6-0.2-2.3-0.7
			c-0.9-0.7-1.7-0.3-2.7-0.5c-0.8-0.2-1.5,0.5-2.3,0.1c-0.8-0.3-0.9-1.4-1.8-0.4c0.2-1.2-2.3-0.8-3-1.5c-1.5-1.4-1.9-4.4-2.2-6.2
			c-0.4-2.3-2.5-3.6-4.9-3.4c-1.1,0.1-1.8,1-2.8,1.3c-0.8,0.2-1.9,0.4-1.4,1.4c0.3,0.6-1.8,0.3-2,0.4c-1.1,0.3-1.5,1.4-2.4,1.8
			c-1.5,0.8-2.9-1.3-4.4-1.3c-1.8,0-2.8,0.4-4-1.3c-0.6-0.8-1.8-1.1-2.7-1.6c-1.1-0.6-2.2-1.3-3.4-1.8c1.1-1.1-1.6-2-2.3-2.3
			c-0.6-0.3-1.1-0.8-1.7-0.9c-0.9-0.2-2,0.1-2.7-0.4c-1.6-1.2-2-2.3-3-3.9c-0.5-0.8-0.2-1.9-1-2.5c-0.5-0.4-1.4-0.7-1.4-1.5
			c1,0.1,0.8-0.8,0.1-0.9c-0.5-0.1-1.7,0-1.2-0.9c0.6-1.1-1.2-2.3-1.8-2.9c-1-1-1.7-2-2.2-3.3c-0.9-2.2-2.6,1.7-3.5,0.3
			c-0.6-0.9-1.6-0.3-2-1.1c-0.2-0.4-1.4-0.6-1.8-1.2c0.6,0,1.2,0.2,1.8,0c-0.2-0.8-1.2-1-1.8-0.6c0.2,0.2,0.3,0.4,0.5,0.5
			c-1.8-0.2,1.1,3.8-2,2.6c0.2,0.6-0.3,0.8-0.8,0.6c-0.7-0.3-0.7-1.1-0.9-1.6c-0.5-1.2-2.2-1.3-2.4-2.8c-0.1-1,0.3-2.9-1.1-2.8
			c-2.1,0.1-1.5-2.9-1.2-4.3c0.4-1.9-0.6-2.3-1.7-3.6c-1.2-1.4-0.9-2.2-2.8-2.5c-1.4-0.3-2.4-1.8-3.5-2.6c-0.6-0.4-1.3-1-2.1-0.9
			c-1.3,0.1-0.5-0.6-1.5-1c2.1-0.7-2.1-3.9-2.7-4.5c-0.5-0.4-0.9-0.9-1.4-1.4c-0.7-0.6-0.1-0.8,0.2-1.6c0.3-0.7,0.1-1.1-0.5-1.6
			c-0.6-0.5-0.1-1.2,0-1.7c0.4,0.2,0.8,0.4,1.2,0.4c-0.1-0.5-0.4-1-0.4-1.6c-0.1-0.9,0.9-0.8,1-1.5c0.1-1,0.1-0.7,1-0.7
			c0.8,0,0.7-0.7,0.4-1.2c-0.4-0.8-1.5-1.5-1.3-2.5c0.2-0.9,1.6-0.7,1.8-1.6c-0.6,0.2-1-0.3-1.5-0.2c-0.7,0.1-1.4,0.4-2.1,0
			c-1-0.6-1.2-1.4-2.5-1.1c0.9-2.1-2.5-2.7-2.4-4.1c0.1-0.8,0-1.1-0.8-1.4c-0.2-0.1-1.4-2.7-1.3-3.1c0.3-1.3-0.5-0.8-1.2-1.6
			c-0.6-0.8-0.3-2.3-1-2.6c-0.4-0.2-1.8-0.6-1.7-1.2c0.1-0.8,0.5-2,1.1-2.6c-1.8-0.4-1-2.7-1.8-3.6c-0.4-0.5-0.3-1-0.6-1.5
			C440.4,21.7,439.7,20.3,439.3,19.7z"/>
		<path class="st1" d="M394.4,63.3c0.5-0.7,1.5-2,2.4-2.2c-1.4-1.3,0.6-2.1,1.8-1.8c-1-1.3,0.5-1.4,0.9-2.6c0.2-0.7-0.6-2-1.4-2.2
			c-0.9-0.2,0.8-1.4-0.6-1c-2.2,0.6-2.4-0.8-2.5-2c-0.1-1.1,0.6-3-0.4-3.8c-0.8-0.6-0.2-2.3-0.2-3.2c0-0.7,1.3,0.4,1.5,0.5
			c0,0.1,0.3-0.6,0.9-0.9c0.7-0.4,0.2-1.3,0.3-1.9c0.6,0.1,1.2,0,1.8-0.1c-0.5-1-0.8-1.2-0.9-2.3c-0.1-0.4,0-1.6,0.6-1.7
			c0.4-0.1,0.9-0.1,1.2,0.1c0.9,0.5,1.1,1.3,2.1,1.2c1.2-0.2,2-0.3,3.1-0.8c1.2-0.5,2-1.2,3.3-1c1,0.1,1.5,0.8,2.4,1.2
			c0.9,0.4,2.7,0.2,3.8,0.2c2.6-0.2,4.4-1.7,6.7-2.6c2.3-0.9,4.9,0.4,7.3-0.6c1.2-0.5,3-2.4,3.2,0.6c0,0.7-1.6,2.1-2.1,2.6
			c-0.9,0.9-1.8,0.8-2.8,1.4c-2.1,1.2,0.1,3.9,0.3,5.4c0.1,0.9-0.4,2-0.5,2.9c-0.1,1.3,0,3.5,0,4.9c0,3.1-13.1,9.2-19.8,13.7
			c-1.8,1.3-4.7,4.3-7.1,2.6c-0.9-0.6-1.5-1.1-2.4-1.7c-1.5-1.1-2.2-0.3-2.5-0.3C394.7,67.4,395.3,63.7,394.4,63.3z"/>
		<path class="st1" d="M542.6,156.4c0.6-0.5,0.7-1.1,1-1.8c0.2-0.2,0.3-0.4,0.5-0.5c0.2-0.3-0.4-1.1-0.4-1.4
			C543.5,154,542.1,155,542.6,156.4z"/>
		<path class="st1" d="M523.2,114.3c0.2-0.5,0.4-0.9,0.6-1.4c0.6,0.6,1.1-0.2,0.8-0.8c0.5,0.3,1.5,1.9,0.2,1.6
			c0.8,0.5,0.2,3.9-0.6,3.7C523.2,117.3,524.7,114.4,523.2,114.3z"/>
		<path class="st1" d="M502,164.2c8.7-2,14.1-4.1,18-6.3c1.6-3.1-0.1,1.8,0.6-1.7c0.6-2.8,1-5.6,1.7-8.2c0.4-1.8,1.5-4.2,0.4-5.9
			c-0.8-1.3-2.3-2.3-2.8-3.7c-0.6-1.7,2.7-7.8,1-8.7c0.7-0.9,2.2-0.1,2.8-1c0.7-0.9-0.4-0.6-0.7-1.1c-0.6-1.2-1.1-3.9-0.3-5.2
			c0.4-0.6,1.2,0.3,1,0.8c-0.4,1.4,1.1-0.1,1.3-0.3c0.7-0.7,0.7-0.6,1.1,0.4c0.7,1.6,1.7,3.1,2.9,4.4c1.9,2,4.4,2.8,7.1,3.3
			c1.2,0.2,2.3,0.7,3.5,0.9c1.7,0.2,2.6,2.2,3.6,3.4c0.8,0.9,1.3,2,2.1,2.9c0.8,0.9,1.2,0.9,2.3,1.4c2.5,1-0.3,4.5-0.8,6
			c-0.9,2.8-3.9,4.2-4.7,7.2c-0.2,0.7-0.4,2.7-1.5,2.4c-0.9-0.3-0.7-1.9-1.8-1.2c-1.3,0.8-1.2,3.7-1.6,4.9c-0.4,1.6,0.1,2.8,0.5,4.3
			c0.3,1.2,0.6,2.2-0.9,2.2c-2.4,0.1-5.1,0.8-5.6,3.4c-0.2,1-0.4,2.1-1,3c-0.8,1.1-2.4,1-3.6,1.1c-1.5,0.1-2.1,0.4-3,1.6
			c-0.9,1.2-0.3,1.4-0.4,2.7c-0.1,1.1-1.1,1.8-2,2.2c-0.4,0.2-0.8,0.5-1.2,0.1c-0.7-0.6-1.3-0.4-2.2-0.4c-2.6,0-4.9,2.5-7.5,2.5
			c-1.7,0-1-4.2-2.8-4.4c0.8-0.8-1.1-3.6-1.5-4.4C504.5,170.1,502.9,166.8,502,164.2"/>
		<path class="st1" d="M441.9,182.5c0-0.7-0.3-1.3-0.9-1.7c0,0.2,0,0.4-0.1,0.7c-0.8,0-1.1-0.8-1.7-1
			C439.9,181.6,441.5,181.5,441.9,182.5z"/>
		<path class="st1" d="M445.9,183.6c0.1-0.8-0.4-2.5-1.1-3c-0.3-0.2-2-3.7-1.9-2c-0.2-3-2.3-3.8-3.9-5.8c-0.6-0.8-1.5-1.9-1.8-2.8
			c-0.4-1.2-1.1-1.6-1.7-2.6c-0.4-0.6-0.1-1.1-0.5-1.7c-0.3-0.4-0.8-1.8-1-2.3c-0.2-0.5-0.3-1.1-0.5-1.5c-0.2-0.5-0.7-0.5-0.9-0.9
			c-0.2-0.4,0-0.9-0.3-1.2c-0.3-0.3-0.8-0.4-1.1-0.7c-0.8-0.7-1.7-1.5-2.5-2.3c-0.9-1-1.9-0.6-2.9-1.3c-1.6-1.2-2.7-3.4-3.7-5.1
			c-0.6-1-0.4-1.6-0.5-2.6c-0.1-1.1-0.9-2.1-1-3.2c-0.1-1.5,0.5-3,0.2-4.5c-0.1-0.7-0.5-1.3-0.9-1.8c-0.2-0.3-1.4-1.8,0-0.8
			c-0.3-0.8-0.9-0.8-1.1-1.6c-0.2-0.7-0.5-1.5-0.8-2.2c-0.8-1.9-2.4-3.2-3.8-4.6c-1.1-1-2.1-1.2-3.4-1.5c-0.6-0.1-0.8-1.2-1-1.6
			c-0.4-1-1-1.6-1.6-2.4c2.1-0.8-0.8-4.2-1.5-5c-0.5-0.6-1.8-1.6-1.7-2.3c0.1-1.3-1.5-2-2.1-3.1c-1.7-3.5-4.3-6.3-6.2-9.7
			c-0.6-1-1.2-2.6-2.4-3c-0.6-0.2-2.8-0.5-2.8,0.5c-0.7-0.7,0.4-2.5,0.7-3.2c0.4-1.5,0.1-3,0.3-4.5c0.3-1.9,0-0.7,0.3-1.9
			c1.4,0.4,5.3,1.5,6.8,1.1c2.8-0.6,2.8-4.7,5.4-5.2c1-0.2,3.4,0.1,3.3-1.3c-0.3-3.1,1.1-2.1,2.9-2.8c-2.4-2.3-4.7-4.7-6.9-7.2
			c4.3-0.9,7.1-1.9,12.2-4.6c2.1,0.4,6,0.6,8.3,1.7c7.9,3.6,14.4,9.2,21.3,14.4c1.5,1.1,2.9,2.2,4.2,3.4c1.5,1.4,2.6,1.3,4.6,1.5
			c2.3,0.2,4.8,0.5,7.1,0.7c0.9,0.1,1.3-0.4,2.2-0.2c1.3,0.3,2.6,0.4,3.9,0.5c1.4,0.1,1.5,1.7,1.9,2.7c0.6,1.5,2.8,0.5,4,0.6
			c1.3,0.1,1.4,0.8,1.9,1.8c0.5,1.1,2.7,2.6,2.4,3.8c-0.1-0.2-0.3-0.4-0.4-0.5c-0.4,0.9,0.5,0.8,0.4,1.6c0,0,3.8,0.4,2.4,1.5
			c0.6,0.2,1.8,3,2.3,1.4c-0.4,1.4,3.1,3,3.9,3.9c-0.4-0.1-0.7-0.4-1-0.8c0,1.6,1,1.6,1.3,2.9c0.2,0.7,0.1,2.3-1,1.3
			c0.1,0.8-0.2,1,0.6,1.2c0.1,0,1.1,2.2,1.2,2.4c-0.2-0.2-0.4-0.4-0.7-0.6c0.7,1,1.8,1.5,2.4,2.6c0.5,1.1,0.7,2.1,1.3,3.1
			c0.5,0.8,1.2,2.2,2.2,2.4c0.5,0.1,2.1-0.3,1.9,0.6c0.2-0.5,0.6-0.6,1-0.4c-0.6,0.7-1.1,2.6,0.8,2.1c-0.1,0,1,2.2,1.1,2.3
			c2.2,2.5,5.2,6.9,6.3,7.3c7.2,0.8,10.6,1.2,14.5,2c0.5-0.1,1-0.4,1.1-0.8c0.9,2,2.9,3.1,3.2,4.4c0.3,1.2,0.2,2-0.1,3.2
			c-1,4.1-1.6,11.5-3.1,12.3c-10.3,5.6-23.2,7.6-35.4,9.7c-1.6,0.6-3.1,1.3-4.6,2.1c-2.2,1.3-4.3,5.1-5,7.3c-0.3,1-1.6,2.2-2.7,2.2
			c-1.2,0-1.4-1.9-2.4-2.3c-1.1-0.4-1.9,0.2-2.9,0.1c-1.5-0.2-3.5,0.1-4.8-0.6c-1.6-0.8-2.8-0.4-4.6-0.4c-1.6,0-3.2,1-4.8,1
			c-1.9,0-2.2-1.5-3.2-1.2c-1.3,0.4-1.7,2.1-1.8,3.2c-0.1,1.1,1.3,1.7,0.1,2.5c-0.2,0.2-0.5,1.7-2.1,2.3
			C445.8,183.8,445.9,183.7,445.9,183.6z"/>
		<path class="st1" d="M439.9,179.4c0.4,0.1,0.5,0.2,0.3,0.4C440.1,179.6,440,179.5,439.9,179.4z"/>
		<path class="st1" d="M440.2,179.8c0.2,0.3,0.2,0.5,0.1,0.8c-0.2-0.1-0.4-0.2-0.6-0.3C439.8,180.1,440,179.9,440.2,179.8z"/>
		<path class="st1" d="M482.2,105.6c0.3-0.4,0.7-0.3,1.1,0C482.9,105.7,482.5,105.7,482.2,105.6z"/>
		<path class="st1" d="M387.4,78.1c0.3-0.4,1.8-2.3,1.1-2.7c1.2-2,1.5-4.4,1.9-6.7c0.1-0.7,0.2-1.9,0.7-2.4c0.4-0.4-0.2-1.2,0.2-1.6
			c0.4-0.4,1.2,0,1.6,0c1,0.1,0.8-0.9,1.1-1.5c1.4,0.1,0.4,5.5,0.5,7.1c-0.2-0.6-1.2-1.5-2-1.7c-0.9-0.2-1.2,0.9-1.4,1.6
			c-0.2,0.8-0.6,3.6,0.5,3.5c2.4-0.3-1,1.3-0.5,3c0.3,1,2.7-0.9,3.2-0.9c-0.1,0.9-0.1,1.4,0,2.8c0,1.2-0.5,2.8-0.8,3.9
			c-0.7,2.1-0.2,5.7-1.6,7.8L387.4,78.1z"/>
		<path class="st1" d="M391.4,64.7c1.3-1.5,1.3-4.3,2.4-6c0.5-0.9-0.1-2,0.5-2.8c0.5-0.6,1.8-1.4,1.4-2.3c0.5,0.1,1.3,0.3,1.8,0
			c1.1-0.7,0.3,0.6,0.5,1c0-0.1,0.7,0.2,0.8,0.3c0.6,0.5,0.2,0.4,0.7,1.2c0.9,1.7-2,1.9-0.8,3.3c-1.2-0.3-3.2,0.5-1.8,1.8
			c-0.5,0.1-2.3,1.9-2.4,2.4c-0.1-0.1-0.2-0.2-0.3-0.3c-0.2,0.4-0.2,0.8-0.4,1.2C393.3,65.3,392,64.1,391.4,64.7z"/>
		<path class="st1" d="M472.3,86.6c0.1,0.3-1.4,2.8,0.5,2.6C474.4,89,472.8,87.1,472.3,86.6z"/>
		<path class="st1" d="M463,92.9c2.6-1,1.4-6.3,4.1-6.8c1.1-0.2,2.6-0.3,4,0.8c0.4,0.3,1.3,2.2,0.9,2.7c-0.8-1.1-1.9,0.8-2.3,1.3
			c1.2-0.2,2.5,0.3,2.9,1.6c0.4,1.6,1.6,3,2.1,4.6c-1-0.6-3.6,0.4-4.6-0.3c-0.8-0.5-0.9-1.7-1.2-2.6C468.6,93.1,464.6,93.4,463,92.9
			z"/>
		<path class="st1" d="M469.2,95.7c6.4,0,6.3-9.9,0-9.9C462.8,85.8,462.8,95.7,469.2,95.7z"/>
		<path class="st1" d="M491.1,120c0-0.3-0.5-2.3,0.4-1.4c-0.1-0.3-0.3-2.1,0.3-0.6c0-1.5,0.6-5.5,2.6-3.3c0.5,0.5,1.5,0.9,1.5,1.8
			c0,0.6-0.3,1-0.4,1.5c-0.1,0.5,0.2,1.1,0.2,1.6c0,0.5,0.6,0.5,0.7,0.9c0.2,0.7,0.1,1.3-0.2,1.9c-0.5,1.1-0.3,1.8-1.5,2.2
			c-1,0.3-1.8,1.1-2.5-0.4C491.7,123,491.5,121.4,491.1,120z"/>
		<path class="st1" d="M373.6,51.1c-0.1-0.2-0.2-0.4-0.2-0.7c0.8,0.8,2-0.7,2.9-0.7c1.4,0.1,0.4-1.3,1.7-1.3c1.4,0,2.7,0.3,4.1-0.1
			c1.6-0.4,3-2.1,4.7-2.1c-1.1,0.7-2,2.2-3.2,2.6c-1.3,0.4,0,1.6,0.5,2.2c-0.6,0.1-1.8,0-2.2,0.3c-0.5,0.4-0.6,1-1.3,1.3
			c-0.6,0.2-2.8,0.4-2.4,1.5C376.3,53.2,374.5,53.5,373.6,51.1z"/>
	</g>
</g>
<path class="st1" d="M219.6,44.1c-3.2,1.5-8,2-10.6,1c-1.8-0.7-2-0.7-2.8,0c-1,1-2.1,1-3.4,0c-1.2-0.9-2.5-0.9-2.9,0
	c-0.2,0.4-0.9,0.7-1.6,0.7c-0.7,0-1.9,0.3-2.6,0.7c-1.6,0.8-2.8,0.9-3.4,0.3c-0.2-0.3-1.9-0.7-3.7-1c-2.7-0.4-3.8-0.4-6.3,0.3
	c-2.4,0.6-3.2,0.6-3.8,0.2c-0.5-0.4-1-0.3-2,0.4c-1,0.8-2.4,1-6.1,1.2c-5.5,0.3-9.4,1.5-12,3.8c-1.1,1-2,1.4-2.6,1.2
	c-0.6-0.1-1.4-0.1-1.8,0.1c-0.4,0.2-1.3,0.5-2,0.7c-0.7,0.1-2,0.9-2.9,1.7c-2.2,1.9-3.9,2.5-7.4,2.5c-2.1,0-3.3-0.2-3.9-0.8
	c-0.5-0.5-1.1-0.7-1.5-0.4c-0.3,0.2-3,0.4-5.9,0.5c-4.6,0.1-5.4,0-6.8-0.9c-1-0.7-1.7-1.5-1.9-2.4c-0.3-1.3-0.3-1.4-2.2-1.1
	c-2.4,0.4-2.7,0.7-4.4,4.5c-2.7,6.1-4.6,8.4-8.5,10.1c-7,3.1-8.2,3.8-10.3,5.7c-1.6,1.6-2.3,2.6-2.5,4c-0.2,1-0.8,2.3-1.3,2.8
	c-1.6,1.5-2.3,3.3-2.3,6c0,1.7,0.3,2.8,0.8,3.4c0.8,0.8,0.7,1-1.1,2.9c-1,1.1-2.3,2.7-2.8,3.4c-0.5,0.7-1.7,1.7-2.8,2.3
	c-1.1,0.5-2.7,1.7-3.6,2.6c-2,1.9-4.2,2.9-8.1,3.5c-1.6,0.3-3.3,0.8-3.7,1.1c-0.4,0.3-1.5,2.3-2.5,4.3c-1.6,3.5-1.9,3.9-4.3,5
	c-2.3,1.1-2.7,1.6-4.1,4.4c-0.9,1.8-1.5,3.9-1.5,4.9c0,2.5-0.5,3.2-4.1,6c-1.7,1.4-3.4,3-3.7,3.5c-0.5,0.9-0.5,1,0.2,0.3
	c1.1-0.9,1-0.4-0.3,1.6c-0.6,1-1.5,2.8-2,4.1c-0.6,1.6-1.5,2.9-2.4,3.6c-1.7,1.3-2.3,2.9-2.8,7.6c-0.3,3.2,0.1,3.9,1.4,2
	c0.7-1,0.7-1,1.7,0.7c0.6,1,1.3,1.7,1.6,1.6c0.8-0.3,1.8,1.7,1.8,3.4c0,0.8-0.4,1.5-1,1.9c-0.7,0.5-0.9,0.8-0.5,1.1
	c0.3,0.3,0.4,0.8,0.1,1.3c-0.3,0.6-0.2,1,0.3,1.5c1.2,1,1.6,2.2,2.1,6.1c0.4,3.7,0.4,3.9-1.2,8.3c-1,2.8-1.7,5.3-1.7,6.7
	c0,2.7-1.6,5.7-4.4,8.1c-1,0.9-1.7,1.7-1.4,1.7c0.8,0,3.9,2.9,3.9,3.6c0,0.3,0.3,0.8,0.8,1c0.5,0.3,0.6,0.5,0.2,0.8
	c-0.3,0.2-0.5,0.6-0.5,0.8c0,0.3,0.2,0.3,0.5,0.2c0.3-0.1,0.5,0,0.5,0.4s0.6,1,1.3,1.4c1.2,0.7,1.2,0.7,0.2,0.8
	c-0.6,0-1.1-0.2-1.1-0.5c0-0.3-0.3-0.5-0.7-0.5c-0.5,0-0.7,0.9-0.7,3.9c0,3.9,0,4,1.4,4.9c0.8,0.5,1.4,1.3,1.4,1.8
	c0,1.6,2.4,2.1,4.9,1.1c0.6-0.3,0.8-0.2,0.5,0.4c-0.2,0.5,0,0.8,0.5,0.8c0.4,0,0.8,0.2,0.8,0.5c0,0.2-0.2,0.5-0.5,0.5
	c-0.2,0-0.5,0.3-0.5,0.8c0,0.4,0.2,0.6,0.6,0.4c0.3-0.2,0.4-0.1,0.2,0.2c-0.2,0.3,0.4,1.3,1.4,2.3c1.4,1.4,1.8,1.6,2.4,1.1
	s0.7-0.4,0.7,0.4c0,0.6,0.2,0.9,0.5,0.8c0.2-0.1,0.3,0,0.2,0.4c-0.3,0.8,3,3.9,5.3,5c1.2,0.6,1.7,1.1,1.7,1.9c0,0.6,0.2,1.1,0.5,1.1
	c0.6,0,2.1,3.3,1.9,4.2c0,0.4,0.2,1,0.5,1.4c0.5,0.7,0.5,0.7-0.5,0.4c-1.1-0.4-1.1-0.3-0.4,1c0.4,0.8,1.2,1.5,1.8,1.7
	c0.6,0.1,0.9,0.5,0.7,0.8c-0.2,0.3,0.1,0.9,0.8,1.3l1,0.8l-1.1,0.5c-1.1,0.5-1.1,0.5,0.5,1c0.9,0.3,3.1,1.2,5,2.1
	c1.8,0.9,3.3,1.5,3.4,1.5c0.1,0,1,0.8,2,1.7c1,1,2.2,2.1,2.8,2.6c0.6,0.5,1.3,0.9,1.8,0.9c0.4,0,2.6,1.6,4.7,3.7
	c3.2,3,5,4.1,9.6,6.4l5.7,2.7l3.8-1.4c2.1-0.8,4-1.6,4.3-1.8c2-1.6,22.1-3.8,22.1-2.4c0,0.1,1,0.4,2.3,0.6c1.3,0.1,3.1,0.7,4,1.1
	c1.7,0.8,1.8,0.8,3.1-0.1c0.7-0.5,2.6-1.3,4.3-1.8c1.7-0.5,4.2-1.5,5.7-2.2c1.5-0.8,3.5-1.6,4.5-1.7c2-0.3,2.4-1.2,1-2
	c-0.5-0.3-0.6-0.5-0.3-0.5c0.3,0,0.9,0.4,1.2,1c0.3,0.5,1,1,1.6,1c1,0,2.8-1.5,2.3-2c-0.5-0.4,5.8-1.4,10.4-1.5
	c3-0.1,4.9-0.4,5.4-0.8c0.6-0.5,0.7-0.5,0.4-0.1c-0.2,0.5,0.2,0.6,1.7,0.6c2.6,0,5.7,1.4,6.9,3.1c0.5,0.7,1.5,1.9,2.1,2.7
	c0.7,0.7,1.2,1.4,1,1.5c-0.4,0.5,1.1,4.4,2.3,5.6c1,1.1,1.6,1.3,4.1,1.3c1.9,0,3.2-0.2,3.6-0.7c0.3-0.4,0.8-0.6,0.9-0.4
	c0.1,0.1,0.7,0,1.2-0.3c0.8-0.4,1-0.4,1,0.2c0,0.8,0.8,1,1.2,0.2c0.1-0.3,1.4-0.5,2.7-0.5c1.6,0,2.8-0.3,3.3-0.8
	c0.8-0.7,0.9-0.7,0.9,0c0,0.5,0.4,0.8,1.1,0.8c0.8,0,1.2,0.3,1.4,1.2c0.4,1.4,3,3.2,4.2,2.8c0.6-0.2,0.8,0,0.6,0.5
	c-0.2,0.4,0.2,1.5,1,2.6c1.3,1.8,1.3,2,0.8,4.6c-0.3,1.5-0.5,3.4-0.5,4.3s-0.6,2.7-1.5,4.2c-1.1,2-1.3,2.7-0.8,2.9
	c0.7,0.3,1.1,2.7,0.5,2.6c-1.1-0.2-1.6,0.1-1.3,0.9c0.2,0.5,0.4,1.1,0.6,1.5c0.1,0.3,0,0.5-0.4,0.3c-0.5-0.2-0.6,0.1-0.5,1.6
	c0.2,2.3-1.8,5.1-3.3,4.6c-0.5-0.2-0.9-0.1-0.9,0.2c0,1,3.1,6.2,3.8,6.2c0.5,0,0.5,0.1,0,0.7c-0.5,0.6-0.4,0.8,0.2,1
	c0.4,0.1,0.8,0.6,0.8,0.9c0,0.9,2.4,3.6,2.9,3.3c0.2-0.1,0.8,0,1.2,0.2c0.8,0.4,0.8,0.5-0.2,0.5c-1.6,0-1.3,0.5,0.9,2.1
	c5.2,3.9,13.9,15.2,13.7,18c0,0.6,1,3.5,2.4,6.4c1.4,3,2.5,5.6,2.5,5.9c0,0.3,0.8,2.2,1.7,4.2c0.9,2,1.7,4,1.7,4.4
	c0,0.4-0.7,1.2-1.5,1.8c-1,0.8-1.3,1.3-1.1,1.9c0.1,0.4,1,2.6,1.9,4.8c0.9,2.2,2,4.9,2.6,5.9c1,1.6,1,2.1,0.7,5.5
	c-0.4,4.5-1.1,5.9-3.6,7.5c-1,0.7-1.9,1.4-1.9,1.7s-0.7,1.2-1.5,2.1c-0.9,1-1.7,2.5-1.9,3.5c-0.2,1-0.7,3.1-1,4.9
	c-1.1,5.1-2.2,8.2-3.2,9.1c-1,0.9-1,1.9-0.1,5.4c0.1,0.8,0.1,0.8-0.3,0.2c-0.8-1.1-1.1-0.3-0.5,1.2c0.3,0.8,0.4,2.6,0.2,4.2
	c-0.3,2.5-0.1,3.2,1.1,5.8c0.8,1.6,1.8,3.1,2.3,3.4c0.5,0.2,1.5,1.6,2.2,3c0.8,1.4,2,3.5,2.7,4.7c0.7,1.2,1.7,3.2,2.1,4.5
	c0.4,1.3,1.6,3.5,2.6,5c1,1.4,1.9,3,1.9,3.5c0,0.5,0.2,0.9,0.4,0.9c0.3,0,1,0.8,1.8,1.7c1.2,1.7,1.3,2,1.4,8.1
	c0.1,5.2,0.3,6.7,1.1,8.2c0.5,1,1,3.3,1.2,5.1c0.1,1.8,0.6,4.3,1,5.7c0.4,1.3,0.8,3,0.9,3.8c0.4,2.7,3.6,8.3,6.1,10.8
	c1.3,1.3,2.7,2.4,2.9,2.4c0.8,0,2.9,3.7,4.2,7.1c1.6,4.2,3.3,7.6,5.8,11.2c2.5,3.6,3.4,6.5,2.7,8.1c-0.3,0.6-0.9,1.1-1.5,1.1
	c-1.2,0-1.8,1.4-0.9,2.1c0.4,0.3,1.4,1.5,2.2,2.7c1,1.6,1.3,2.4,1,3c-0.6,1-0.3,3.2,0.4,3.5c0.3,0.1,0.7-0.3,0.8-0.9
	c0.3-1.1,1.5-1,1.5,0c0,0.4,0.7,0.8,1.5,1c0.8,0.1,1.9,0.7,2.4,1.2c1.8,1.8,3.7,1.9,6.7,0.3c2.1-1,3.4-1.3,6.4-1.5
	c2.9-0.1,4.1-0.3,5.1-1.1c1.1-0.9,2.1-1,7.7-1.2c4.5-0.1,7.2,0,8.9,0.4c2.1,0.6,2.5,0.6,3,0c0.3-0.4,1.5-0.7,3.1-0.7
	c2.2,0,2.5-0.1,2.4-0.9c-0.1-0.7,0.4-0.9,3.4-1c2.7-0.2,4.2-0.6,6.2-1.6c3.7-1.9,8.7-5.6,12.6-9.3c1.9-1.7,4.4-4,5.7-5
	c2.5-2,6.8-7.5,8.8-11.3c1-1.8,2.1-3.1,4.8-5c3.6-2.6,5.3-5.1,5.3-7.6c0-0.6,0.4-2.2,0.9-3.6c1.1-3.1,1.6-9.8,0.7-10.1
	c-0.8-0.3-0.8-1.7,0-2.7c1-1.3,3-2.3,8-4c2.7-0.9,5.7-2.2,6.6-2.8c1.9-1.2,4-5,3-5.4c-0.8-0.2-0.7-1.8,0.1-4.1
	c0.4-1.1,0.5-2,0.2-2.3c-0.2-0.2-0.3-1.6-0.1-3.1c0.2-1.8,0.1-2.5-0.2-2.2c-0.2,0.2-0.6,0.9-0.7,1.4c-0.1,0.5-0.2-0.1-0.3-1.4
	c0-1.3-0.4-3-0.8-3.8c-0.4-0.7-0.7-2.1-0.7-3c0-1.1-0.4-2-1.2-2.7c-1-0.9-1.2-1.6-1.2-3.3c0-1.8,0.1-2.2,1.1-2.4
	c0.6-0.1,2.3-1.5,3.9-3.1c2.5-2.6,3.2-3,4.2-2.9c0.2,0,1-0.8,1.9-1.7c5.7-6.3,6.4-6.9,9.7-8.5c1.8-0.9,4.4-1.9,5.7-2.2
	c1.3-0.3,3-1,3.6-1.6c0.7-0.6,2-1.4,2.8-1.8c0.8-0.5,1.6-1.2,1.8-1.6c0.3-0.9,0.5-1.1,3.4-4.5c2.6-3,4.2-9,2.4-9
	c-0.2,0-0.3-0.3-0.1-0.7c0.2-0.4,0.1-0.7-0.1-0.7c-0.2,0-0.5-0.4-0.5-0.9c0-5.4-0.2-7.8-0.7-7.4c-0.3,0.2-0.2,0,0.2-0.6
	c0.5-0.6,0.7-1.1,0.4-1.6c-0.9-1.4-1.1-8.3-0.4-10.4c0.4-1.1,0.5-2.1,0.3-2.3s-0.3-0.5-0.1-0.7c0.3-0.5-1.6-2.8-2.3-2.8
	c-0.2,0-1-0.4-1.8-1c-1-0.8-1.4-1.5-1.7-3.5c-0.2-1.3-0.7-2.9-1.1-3.3c-0.4-0.4-0.6-0.8-0.3-0.8c0.2,0,0-0.6-0.5-1.3
	c-0.8-1.1-0.8-1.6-0.3-3.5c0.4-1.6,0.5-2.5,0.1-3.2c-0.7-1.3-0.7-2.7,0.2-3.4c1.2-1,0.8-2-1.7-4.5c-1.9-1.8-2.4-2.7-2.4-3.8
	c0-1.9,2.6-8.4,3.7-9.1c0.5-0.3,1.7-2.3,2.7-4.3c1-2,2-4,2.2-4.4c0.2-0.4,0.7-1.7,1-2.8c0.5-1.7,0.9-2.2,2-2.6
	c1.4-0.5,5-3.2,4.2-3.2c-0.2,0,0.2-0.3,0.9-0.8c0.7-0.4,2.2-2.2,3.3-4.1c1.4-2.3,4.2-5.7,8.7-10.3c7.5-7.6,10.5-10.1,16-13
	c3.3-1.7,4.7-2.9,10.9-9.4c4-4,7.1-7.7,7.1-8c0-0.3,1.1-2.2,2.6-4.1c3-4.1,4.6-7,4.6-8.2c0-0.9,2.6-5.8,3.3-6.2c0.2-0.1,0.7-1,1-2
	c0.3-1,1.1-2.3,1.7-3c0.6-0.7,1.6-2.1,2.1-3.3c0.6-1.2,1.6-2.8,2.1-3.6c0.7-0.9,1.3-2.7,1.6-4.7c0.3-1.8,0.8-3.6,1.2-4
	c0.8-0.9,1.3-5,0.8-5.6c-0.2-0.2,0-1.2,0.3-2.3c0.8-2.1,0.6-2.4-2-2.9c-1.3-0.2-1.9,0-3.2,1.2c-1,0.8-2.3,1.6-3,1.7
	c-0.7,0.1-2.1,0.5-3.2,0.8c-1,0.3-3.2,0.6-4.8,0.6c-1.6,0-3.4,0.3-4,0.7c-0.8,0.4-1.9,0.5-3.5,0.3c-2.1-0.3-2.6-0.2-5.2,1.4
	c-2.8,1.7-2.9,1.7-5.4,1.1c-2.4-0.5-2.7-0.5-5.2,0.8c-4,2-6.4,2.1-8.7,0.5c-1-0.7-2.5-2.3-3.4-3.4c-1.8-2.3-3.5-3.2-5.4-2.8
	c-2,0.4-1.6,0,1.3-1.3c2.5-1.2,2.9-1.6,2.6-3.1c-0.1-1.2-2.5-4.3-3.1-4.1c-0.3,0.1-0.9-0.3-1.3-0.9c-0.4-0.6-1.1-1.2-1.7-1.4
	c-0.5-0.1-1-0.9-1.1-1.6c-0.2-0.9-1-1.8-2.5-2.7c-1.2-0.8-2.9-2.3-3.6-3.4c-1.2-1.8-1.9-2.2-4.8-3.1c-2-0.7-3.6-1.5-3.9-2
	c-0.8-1.4-1.9-2.7-2.3-2.7c-0.2,0-0.4,0.5-0.4,1c0,1-0.1,1-0.8-0.2c-0.4-0.7-0.9-1.3-1-1.3c-0.4,0-1.9-4.8-2.2-7.1
	c-0.1-1-1-3.6-2.1-6c-1.4-3.1-2.3-4.4-3.3-4.9c-0.7-0.4-2.1-1.4-3-2.2c-0.9-0.8-2-1.7-2.5-2c-1-0.6-1.8-4.7-1.9-10
	c0-2.2-0.2-4-0.4-4c-0.2,0-0.4-0.4-0.3-0.9c0-0.5,0.1-0.6,0.3-0.2c0.1,0.3,0.4,0.5,0.7,0.3c0.2-0.1-0.2-1-1-2
	c-0.9-1.1-1.4-2.3-1.4-3.2c0-1.1-0.6-2-2.7-4c-1.5-1.4-3.2-2.8-3.9-3c-1.5-0.7-3-3.6-3-5.8c0-1.3,0.2-1.7,1-1.7s0.5-0.4-1.2-2.1
	c-1.1-1.2-2.7-3.4-3.5-4.9s-2.6-4.8-4-7.1c-1.5-2.4-2.7-4.6-2.6-4.8c0.2-0.6-1.1-3.5-2.2-5.1c-0.5-0.8-0.9-1.9-0.9-2.5
	c0-0.7-0.3-1.3-1-1.8c-1.3-0.9-5.1-6.2-4.8-6.6c0.1-0.1-0.2-1.1-0.8-2.1c-0.7-1.2-1-2.2-0.7-2.8c0.3-0.8,0.4-0.7,1,0.6
	c0.3,0.8,1.3,2.4,2.1,3.5c0.8,1.1,1.5,2.5,1.5,3.1c0,0.7,1,2,2.9,3.8c4,3.7,5.8,3.6,6.3-0.4c0.3-2.7,2-8.2,2.7-9
	c0.5-0.6,0.5-0.9,0-1.5c-0.3-0.4-1.4-2.8-2.4-5.3l-1.8-4.6l1-1.1c1.6-1.7,0.7-1.8-1.6-0.1c-1.9,1.3-2.4,1.5-5.2,1.4
	c-1.7,0-3.7,0-4.3,0.2c-0.9,0.2-1.9,0-3.6-1.1c-2.3-1.3-3.3-1.6-8.1-1.6c-3.9,0-5.4,0.2-5.4,0.9c0,0.3-0.4,0.6-1,0.6
	c-0.5,0-1.7,0.5-2.5,1.2c-2.7,2.1-4.1,2.3-6.9,1.2c-1.3-0.5-3.1-1-3.9-1c-0.8,0-1.5-0.2-1.7-0.5c-0.1-0.3-0.8-0.4-1.3-0.2
	c-0.6,0.1-1.3,0-1.8-0.4c-0.4-0.3-2.8-1-5.2-1.5c-5.3-1-5.8-1-8.4-0.5c-1.8,0.3-2,0.3-2-0.5c0-1.8-0.9-2.3-4.4-2.6
	c-1.9-0.1-4.1-0.5-4.9-0.8c-0.8-0.3-2-0.7-2.9-0.9c-1-0.3-1.5-0.8-1.6-1.5c-0.2-1.2-0.8-1.5-5.7-2.7c-3.1-0.8-3.6-0.8-5.2-0.1
	c-1,0.4-3,1.1-4.6,1.6c-3.9,1.1-6.4,3.6-6.4,6.3c0,1,0.3,2.3,0.7,2.8c1,1.3,0.9,2.3-0.5,4c-2.8,3.3-5.8,3.7-9.4,1.2
	c-3.1-2.1-8.4-4-13.5-4.6c-5.1-0.7-6.7-1.7-7.7-4.9c-0.8-2.5-2.1-3.6-4.2-3.6c-0.6,0-1.9-0.4-2.9-0.9c-2.4-1.2-5.4-1.7-10-1.6
	c-3.1,0.1-4.3-0.1-5.7-0.9c-2.2-1.1-4-1.2-4-0.2c0,1.1-1.6,0.6-1.8-0.5c-0.3-1.6-1-2.2-1.9-1.6c-0.6,0.5-0.8,0.5-0.9,0
	c-0.1-0.3-0.8-0.6-1.4-0.6c-1.2,0-3.5-1.9-3.5-2.9c0-0.3,0.7-0.9,1.6-1.4c6.2-3.7,7.6-7.6,3.6-10.2c-1-0.7-1.9-1.5-1.9-2
	c0-0.4,0.9-1.5,1.9-2.5c1.3-1.2,1.9-2.2,1.9-3c0-1.6-0.2-1.6-2.6-0.1c-2,1.2-2.9,1.5-2.4,0.7c0.1-0.3,0-0.6-0.5-0.8
	c-0.6-0.2-0.6-0.5-0.2-1c0.4-0.5,0.4-0.7-0.2-1c-0.4-0.1-1.1-0.2-1.5,0c-0.4,0.1-0.7,0-0.7-0.2C225.1,42.6,222,43,219.6,44.1z
	 M50.9,203.3c-0.3,0.1-0.9,0.1-1.2,0c-0.3-0.1-0.1-0.2,0.6-0.2C51,203.1,51.2,203.2,50.9,203.3z M56.2,214.3c-0.3,0.1-0.9,0.1-1.2,0
	c-0.3-0.1-0.1-0.2,0.6-0.2C56.2,214,56.5,214.1,56.2,214.3z"/>
<path class="st1" d="M62.6,97.6c-0.8,0.4-1.3,1.1-1.3,1.6c0,0.5-0.2,1-0.5,1c-0.2,0-0.8,0.7-1.2,1.5c-0.4,0.9-1.2,2-1.8,2.6l-1,1.1
	h1c2.4,0,4.9-2.5,4.3-4.4c-0.1-0.3,0.4-1,1.1-1.4c0.8-0.5,1.3-1.2,1.3-1.8C64.6,96.6,64.3,96.6,62.6,97.6z"/>
<path class="st1" d="M32.9,100.1c-0.3,0.5,1,2.9,1.7,2.9c0.5,0,1-1.2,1-2.4c0-0.6-0.3-0.9-1.1-0.9C33.7,99.6,33.1,99.8,32.9,100.1z"
	/>
<path class="st1" d="M43.9,101.8c-0.5,0.4-1.5,0.7-2.2,0.7c-1.6,0-1.6,0.2-0.3,2.4l1,1.7l1.9-2.1c1.8-2,2-2.9,1-3.2
	C45,101.1,44.4,101.4,43.9,101.8z"/>
<path class="st1" d="M37.6,104.5c-0.5,0.8,0.6,1.5,1.7,1.1c0.8-0.2,0.9-0.5,0.4-1C39.1,103.8,38.1,103.7,37.6,104.5z"/>
<path class="st1" d="M48.5,104.5c-1.2,1.2-0.3,3.2,1.4,3.2c0.4,0,1-0.4,1.3-0.9c0.6-1.2,0.6-1.3-0.3-2.1
	C50.1,103.8,49.3,103.7,48.5,104.5z"/>
<path class="st1" d="M32.2,106.8c-0.6,0.4-0.6,0.6,0.2,1.2c0.7,0.5,1.1,0.6,1.6,0.2C35.5,106.8,33.9,105.6,32.2,106.8z"/>
<path class="st1" d="M387.7,108.2c0.1,0.2,0.5,0.5,0.8,0.5c0.2,0,0.4-0.2,0.4-0.5c0-0.3-0.3-0.5-0.8-0.5
	C387.7,107.7,387.5,107.9,387.7,108.2z"/>
<path class="st1" d="M0.1,180.1c-0.2,0.2-0.1,0.8,0,1.2c0.2,0.7,0.4,0.7,1.4,0c0.6-0.4,1.1-0.9,1.1-1.1
	C2.7,179.5,0.5,179.5,0.1,180.1z"/>
<path class="st1" d="M2.4,181.4c-0.9,0.3-0.8,1.1,0,1.1s1.4-0.8,0.9-1.1C3.1,181.3,2.6,181.3,2.4,181.4z"/>
<path class="st1" d="M15.6,181.9c0,0.2,0.3,0.8,0.7,1.3c0.7,0.9,0.7,0.9,0.7-0.4c0-0.8-0.2-1.3-0.7-1.3
	C15.9,181.5,15.6,181.7,15.6,181.9z"/>
<path class="st1" d="M6.5,183.7c0,0.5,0.2,0.7,0.8,0.5c0.4-0.1,1-0.3,1.4-0.3c0.4,0,0.6-0.2,0.4-0.5C8.6,182.6,6.5,182.9,6.5,183.7z
	"/>
<path class="st1" d="M428.4,185.8c0,0.2,0.3,0.5,0.8,0.5c0.4,0,0.6-0.2,0.4-0.5c-0.1-0.3-0.5-0.5-0.8-0.5
	C428.6,185.4,428.4,185.5,428.4,185.8z"/>
<path class="st1" d="M16.4,186.2c-0.7,0.6-0.3,1.6,0.6,1.6c1.2,0,1.8-1,1-1.5C17.1,185.7,16.7,185.7,16.4,186.2z"/>
<path class="st1" d="M428.7,187.1c-0.5,0.5-0.4,2,0.1,2c0.7,0,1.1-1.4,0.6-2C429.3,187,428.9,186.9,428.7,187.1z"/>
<path class="st1" d="M430.5,188.7c-0.1,0.2,0,0.5,0.4,0.5c0.4,0,0.8-0.2,0.8-0.5c0-0.3-0.2-0.5-0.4-0.5
	C431,188.2,430.7,188.4,430.5,188.7z"/>
<path class="st1" d="M14.4,192.5c-0.2,0.3-0.1,0.8,0.1,1c0.6,0.6,1.1-0.2,0.6-1C14.8,192.1,14.6,192.1,14.4,192.5z"/>
<path class="st1" d="M10.6,193.2c-0.3,0.8,0.9,2.1,1.9,2.1c1,0,0.8-1.8-0.2-2.4C11.1,192.4,10.9,192.4,10.6,193.2z"/>
<path class="st1" d="M447,199.6c0,0.3,0.2,0.6,0.5,0.8c0.3,0.1,0.5,0,0.5-0.4c0-0.4-0.2-0.8-0.5-0.8
	C447.2,199.2,447,199.4,447,199.6z"/>
<path class="st1" d="M446.7,201.5c-0.1,0.2,0,0.5,0.4,0.5c0.4,0,0.8-0.2,0.8-0.5c0-0.3-0.2-0.5-0.4-0.5
	C447.2,201.1,446.9,201.3,446.7,201.5z"/>
<path class="st1" d="M519.9,208.9c-0.5,0.5-0.3,0.8,0.5,1.4c1.3,1,3.2,1,5.4,0.1c3-1.3,1.9-2.2-2.6-2.2
	C521.4,208.2,520.2,208.5,519.9,208.9z"/>
<path class="st1" d="M511.3,211.5c0,0.2,0.6,0.5,1.3,0.4c1.1,0,1.2,0,0.3-0.4C511.6,211,511.3,211,511.3,211.5z"/>
<path class="st1" d="M49.9,216.5c-0.4,0.5-0.4,0.8,0,1c0.2,0.1,0.6,0,0.8-0.5C51,216,50.6,215.6,49.9,216.5z"/>
<path class="st1" d="M47,216.7c0,0.2,0.4,0.4,1,0.4c0.5,0,1-0.1,1-0.2c0-0.2-0.4-0.4-1-0.4S47,216.5,47,216.7z"/>
<path class="st1" d="M48.2,218.2c-0.1,0.2,0,0.5,0.2,0.5c0.3,0,0.5-0.2,0.5-0.5c0-0.3-0.1-0.5-0.2-0.5
	C48.6,217.7,48.3,217.9,48.2,218.2z"/>
<path class="st1" d="M49.2,218.9c-1,0.4-1.2,0.8-0.8,1c0.3,0.2,0.8,0.1,1-0.3c0.3-0.5,0.5-0.5,0.8-0.1c0.2,0.4,0.7,0.3,1.5-0.3
	l1.2-1l-1.2,0C51.1,218.3,49.9,218.5,49.2,218.9z"/>
<path class="st1" d="M217.6,268.8c-0.3,0.3-0.6,0.8-0.6,1c0,0.2-0.4,0.9-0.8,1.4c-0.8,0.9-0.8,0.9,0.1,1.6c1.3,1,1.5,0.9,2.6-1.2
	c0.9-1.8,0.9-1.9,0.1-2.6C218.3,268.4,218,268.4,217.6,268.8z"/>
<path class="st1" d="M208.7,283.4c-0.2,0.3-0.2,0.7-0.1,0.9c0.4,0.4,0.9-0.2,0.7-0.9C209.1,282.9,209,282.9,208.7,283.4z"/>
<path class="st1" d="M426.5,329.2c0,2.3,1.1,2.6,1.6,0.4c0.3-1.7,0-2.3-1-2.3C426.7,327.3,426.5,327.8,426.5,329.2z"/>
<path class="st1" d="M423.7,333.5c-0.7,0.7-0.7,2.3-0.1,3.2c0.2,0.4,0.5,0.5,0.5,0.2c0-0.3,0.2-0.1,0.5,0.3c0.2,0.5,0.7,0.9,0.9,0.9
	c0.6,0,0.6-2.2,0-2.6c-0.2-0.1-0.5-0.7-0.5-1.2C425.1,333.3,424.4,332.9,423.7,333.5z"/>
<path class="st1" d="M427,347c-1.1,1.2-1.1,1.9,0.1,1.4c0.8-0.3,2-2.6,1.4-2.6C428.3,345.8,427.6,346.4,427,347z"/>
<path class="st1" d="M472.7,360.2c0,0.2,0.2,0.3,0.5,0.2c0.3-0.1,0.5-0.4,0.5-0.5c0-0.1-0.2-0.2-0.5-0.2
	C472.9,359.6,472.7,359.9,472.7,360.2z"/>
<path class="st1" d="M450.8,371.5c-0.8,1.4-0.6,2.2,0.4,3.1c1.1,1,1.6,0.3,1.2-1.9C452,370.7,451.5,370.3,450.8,371.5z"/>
<path class="st1" d="M490.5,376.6c-0.6,1.3-1,1.6-1.7,1.5c-0.5-0.1-0.9-0.1-0.8,0c0.1,0.2,0.4,0.9,0.8,1.5c0.9,1.7-0.4,4.7-2.3,5.4
	c-0.9,0.3-1.4,0.9-1.4,1.5c0,0.9,0,0.9-0.5-0.1c-1-2-2.3-0.7-2.1,2.2c0.1,1.6,0,2-0.8,2.1c-0.7,0.2-0.9,0.6-0.8,1.6
	c0.1,1.1,0,1.3-0.9,1.2c-1.4-0.1-3.2,2.3-2.8,3.9c0.2,0.7,0.1,1.2-0.2,1.2c-0.2,0-0.5-0.4-0.5-1c0-1.1-0.1-1.1-1.8-0.3
	c-1.9,1-3.1,2.5-2.8,3.5c0.2,0.8,0.2,0.7-0.4,0c-0.6-0.8-0.9-0.8-1.3-0.4c-0.3,0.3-1,0.6-1.7,0.6c-0.6,0-1.2,0.3-1.4,0.6
	c-0.1,0.4-0.8,0.6-1.7,0.4c-0.9-0.1-1.7,0.1-2.2,0.5c-0.4,0.4-1.7,0.8-2.7,0.9c-1.9,0.1-1.9,0.2-2,2c-0.1,1.1-0.8,2.8-1.8,4.2
	c-1.2,1.7-1.6,2.7-1.4,3.4c0.2,0.5,0.5,2.1,0.7,3.6c0.2,1.4,0.6,3.1,0.9,3.7c0.3,0.6,0.6,1.5,0.6,2.1c0,0.6,0.3,1.5,0.7,2
	c1.1,1.5,0.6,5-1.2,8.2c-1,1.6-1.9,3.3-2,3.9c-0.2,0.6-0.7,1.2-1.2,1.3c-0.4,0.1-1.3,1.4-2,2.9c-1.4,3.5-1.1,6.7,0.9,10
	c1.2,1.9,1.3,2.4,0.9,3.2c-1.7,3.3,2.3,10.3,7,11.9c1.1,0.4,2.6,1,3.4,1.3c1.3,0.6,1.8,0.5,4.7-0.9c1.8-0.9,3.7-1.5,4.3-1.5
	c1.8,0,4.4-1.3,4.8-2.2c0.2-0.5,0.9-2.1,1.5-3.7c0.6-1.6,1.9-5.6,2.8-8.9c0.9-3.3,2-7,2.6-8c0.5-1.1,1.4-3.5,1.9-5.4
	c0.5-1.9,2.3-7.4,4-12.2c2.6-7.2,3.1-9.3,3.1-11.8c0-2.4,0.2-3.1,1-3.9c1.1-1,1.8-3.9,1.1-5.2c-0.2-0.5-0.4-1.1-0.4-1.3
	c0-0.3-0.2-1-0.4-1.6c-0.7-2,0.5-2.2,1.4-0.2c1.5,3.1,3,2.4,3.8-1.9c0.2-1.2,0-1.9-0.7-2.9c-0.8-1-1-2.1-1.2-5
	c-0.1-2.2-0.5-4.4-1-5.3c-0.4-0.8-0.8-2-0.8-2.6c0-0.6-0.5-1.6-1.2-2.2c-0.7-0.6-1.2-1.4-1.2-1.7s-0.4-0.9-0.8-1.2
	c-0.5-0.3-0.9-0.9-0.9-1.2c-0.1-1.3-0.2-1.5-0.7-1.5C491.5,374.9,490.9,375.6,490.5,376.6z"/>
<path class="st1" d="M457.5,376.2c0,0.6,1.1,1.5,1.8,1.5c0.3,0,0.6-0.4,0.6-1c0-0.7-0.3-1-1.2-1C458,375.8,457.5,376,457.5,376.2z"
	/>
<path class="st1" d="M453.8,377.6c0.4,0.4,1,0.6,1.1,0.4c0.2-0.2,0-0.5-0.3-0.8C453.4,376.5,452.9,376.7,453.8,377.6z"/>
<path class="st1" d="M463.2,380.8c0,1.4,0.5,1.5,1.3,0.3c0.5-0.8,0.4-1-0.1-1.2C463.2,379.5,463.2,379.5,463.2,380.8z"/>
<path class="st1" d="M484.8,383.6c-0.4,0.9-0.1,1.5,0.6,1.2c0.2-0.1,0.3-0.6,0.1-1.1C485.2,382.8,485.2,382.8,484.8,383.6z"/>
<path class="st1" d="M496.2,407.8c-0.9,1.2-1.1,1.8-0.7,1.8c0.5,0,1.7-1.9,1.3-2.2C496.7,407.3,496.4,407.5,496.2,407.8z"/>
<path class="st1" d="M397.9,440.8c0,1.2,0.1,1.3,0.5,0.6c0.4-0.7,0.4-1,0-1.4C398.1,439.6,397.9,439.8,397.9,440.8z"/>
</svg>
